<svg xmlns="http://www.w3.org/2000/svg" width="1600" height="1600" viewBox="0 0 1600 1600" version="1.1"><path d="M 448.173 544.986 C 432.260 560.685, 421.975 571.567, 422.173 572.495 C 422.353 573.340, 458.604 610.146, 502.732 654.287 L 582.963 734.542 503.421 814.021 C 459.672 857.734, 423.407 894.348, 422.831 895.385 L 421.785 897.271 448.135 923.635 C 462.628 938.136, 475.157 950, 475.978 950 C 476.799 950, 513.588 913.893, 557.732 869.762 L 637.993 789.524 717.981 869.512 C 769.892 921.423, 798.662 949.500, 799.942 949.500 C 801.184 949.500, 811.564 939.896, 827.997 923.542 L 854.079 897.584 773.017 816.517 L 691.956 735.451 745.728 681.728 C 775.303 652.180, 799.709 628.004, 799.965 628.002 C 800.221 628.001, 872.777 700.337, 961.201 788.750 C 1049.625 877.163, 1122.717 949.658, 1123.628 949.851 C 1124.708 950.079, 1134.278 941.212, 1151.142 924.358 C 1165.364 910.144, 1177 898.042, 1177 897.466 C 1177 896.889, 1092.287 811.494, 988.750 707.700 C 885.212 603.906, 800.051 518.987, 799.502 518.992 C 798.954 518.996, 762.167 555.335, 717.755 599.745 L 637.006 680.489 556.239 599.745 C 511.816 555.335, 475.253 519.003, 474.985 519.007 C 474.718 519.011, 462.653 530.701, 448.173 544.986 M 422 1041.500 L 422 1080 799 1080 L 1176 1080 1176 1041.500 L 1176 1003 799 1003 L 422 1003 422 1041.500" stroke="none" fill-rule="evenodd"/></svg>